<svg width="48" height="48" viewBox="0 0 48 48" fill="none" xmlns="http://www.w3.org/2000/svg">
<path d="M43.9404 36.66C43.9404 37.38 43.7804 38.12 43.4404 38.84C43.1004 39.56 42.6604 40.24 42.0804 40.88C41.1004 41.96 40.0204 42.74 38.8004 43.24C37.6004 43.74 36.3004 44 34.9004 44C32.8604 44 30.6804 43.52 28.3804 42.54C26.0804 41.56 23.7804 40.24 21.5004 38.58C19.2004 36.9 17.0204 35.04 14.9404 32.98C12.8804 30.9 11.0204 28.72 9.36037 26.44C7.72037 24.16 6.40037 21.88 5.44037 19.62C4.48037 17.34 4.00037 15.16 4.00037 13.08C4.00037 11.72 4.24037 10.42 4.72037 9.22C5.20037 8 5.96037 6.88 7.02037 5.88C8.30037 4.62 9.70037 4 11.1804 4C11.7404 4 12.3004 4.12 12.8004 4.36C13.3204 4.6 13.7804 4.96 14.1404 5.48L18.7804 12.02C19.1404 12.52 19.4004 12.98 19.5804 13.42C19.7604 13.84 19.8604 14.26 19.8604 14.64C19.8604 15.12 19.7204 15.6 19.4404 16.06C19.1804 16.52 18.8004 17 18.3204 17.48L16.8004 19.06C16.5804 19.28 16.4804 19.54 16.4804 19.86C16.4804 20.02 16.5004 20.16 16.5404 20.32C16.6004 20.48 16.6604 20.6 16.7004 20.72C17.0604 21.38 17.6804 22.24 18.5604 23.28C19.4604 24.32 20.4204 25.38 21.4604 26.44C22.5404 27.5 23.5804 28.48 24.6404 29.38C25.6804 30.26 26.5404 30.86 27.2204 31.22C27.3204 31.26 27.4404 31.32 27.5804 31.38C27.7404 31.44 27.9004 31.46 28.0804 31.46C28.4204 31.46 28.6804 31.34 28.9004 31.12L30.4204 29.62C30.9204 29.12 31.4004 28.74 31.8604 28.5C32.3204 28.22 32.7804 28.08 33.2804 28.08C33.6604 28.08 34.0604 28.16 34.5004 28.34C34.9404 28.52 35.4004 28.78 35.9004 29.12L42.5204 33.82C43.0404 34.18 43.4004 34.6 43.6204 35.1C43.8204 35.6 43.9404 36.1 43.9404 36.66Z" stroke="white" stroke-width="1.5" stroke-miterlimit="10"/>
</svg>
