<svg width="39" height="38" viewBox="0 0 39 38" fill="none" xmlns="http://www.w3.org/2000/svg">
<path d="M13.2909 5H7.69092C5.45071 5 4.32977 5 3.47412 5.43597C2.72147 5.81947 2.10999 6.43095 1.7265 7.18359C1.29053 8.03924 1.29053 9.16018 1.29053 11.4004V30.6004C1.29053 32.8406 1.29053 33.9601 1.7265 34.8158C2.10999 35.5684 2.72147 36.181 3.47412 36.5645C4.32893 37 5.44852 37 7.68435 37H26.8967C29.1325 37 30.2505 37 31.1053 36.5645C31.858 36.181 32.4715 35.5678 32.855 34.8152C33.2905 33.9604 33.2905 32.842 33.2905 30.6062V25M25.2905 7L13.2905 19V25H19.2905L31.2905 13M25.2905 7L31.2905 1L37.2905 7L31.2905 13M25.2905 7L31.2905 13" stroke="white" stroke-width="2" stroke-linecap="round" stroke-linejoin="round"/>
</svg>
