<svg width="80" height="80" viewBox="0 0 80 80" fill="none" xmlns="http://www.w3.org/2000/svg">
<rect width="80" height="80" rx="40" fill="#00A99D"/>
<path d="M38.0002 32H35.2002C34.0801 32 33.5196 32 33.0918 32.218C32.7155 32.4097 32.4097 32.7155 32.218 33.0918C32 33.5196 32 34.0801 32 35.2002V44.8002C32 45.9203 32 46.4801 32.218 46.9079C32.4097 47.2842 32.7155 47.5905 33.0918 47.7822C33.5192 48 34.079 48 35.1969 48H44.8031C45.921 48 46.48 48 46.9074 47.7822C47.2837 47.5905 47.5905 47.2839 47.7822 46.9076C48 46.4802 48 45.921 48 44.8031V42M44 33L38 39V42H41L47 36M44 33L47 30L50 33L47 36M44 33L47 36" stroke="white" stroke-width="2" stroke-linecap="round" stroke-linejoin="round"/>
</svg>
