<svg width="80" height="80" viewBox="0 0 80 80" fill="none" xmlns="http://www.w3.org/2000/svg">
<rect width="80" height="80" rx="40" fill="#00A99D"/>
<path d="M49.97 46.33C49.97 46.69 49.89 47.06 49.72 47.42C49.55 47.78 49.33 48.12 49.04 48.44C48.55 48.98 48.01 49.37 47.4 49.62C46.8 49.87 46.15 50 45.45 50C44.43 50 43.34 49.76 42.19 49.27C41.04 48.78 39.89 48.12 38.75 47.29C37.6 46.45 36.51 45.52 35.47 44.49C34.44 43.45 33.51 42.36 32.68 41.22C31.86 40.08 31.2 38.94 30.72 37.81C30.24 36.67 30 35.58 30 34.54C30 33.86 30.12 33.21 30.36 32.61C30.6 32 30.98 31.44 31.51 30.94C32.15 30.31 32.85 30 33.59 30C33.87 30 34.15 30.06 34.4 30.18C34.66 30.3 34.89 30.48 35.07 30.74L37.39 34.01C37.57 34.26 37.7 34.49 37.79 34.71C37.88 34.92 37.93 35.13 37.93 35.32C37.93 35.56 37.86 35.8 37.72 36.03C37.59 36.26 37.4 36.5 37.16 36.74L36.4 37.53C36.29 37.64 36.24 37.77 36.24 37.93C36.24 38.01 36.25 38.08 36.27 38.16C36.3 38.24 36.33 38.3 36.35 38.36C36.53 38.69 36.84 39.12 37.28 39.64C37.73 40.16 38.21 40.69 38.73 41.22C39.27 41.75 39.79 42.24 40.32 42.69C40.84 43.13 41.27 43.43 41.61 43.61C41.66 43.63 41.72 43.66 41.79 43.69C41.87 43.72 41.95 43.73 42.04 43.73C42.21 43.73 42.34 43.67 42.45 43.56L43.21 42.81C43.46 42.56 43.7 42.37 43.93 42.25C44.16 42.11 44.39 42.04 44.64 42.04C44.83 42.04 45.03 42.08 45.25 42.17C45.47 42.26 45.7 42.39 45.95 42.56L49.26 44.91C49.52 45.09 49.7 45.3 49.81 45.55C49.91 45.8 49.97 46.05 49.97 46.33Z" stroke="white" stroke-width="1.5" stroke-miterlimit="10"/>
</svg>
