<svg width="16" height="12" viewBox="0 0 16 12" fill="none" xmlns="http://www.w3.org/2000/svg">
<path d="M15.5402 1.68524C15.4937 1.62788 15.4351 1.58154 15.3685 1.54956C15.3019 1.51757 15.2291 1.50073 15.1552 1.50024H4.74524L5.07024 2.50024H14.5002L13.1652 8.50024H5.66524L3.38024 1.26524C3.35552 1.18847 3.3126 1.11881 3.25514 1.06222C3.19768 1.00563 3.12738 0.963779 3.05024 0.940238L1.00024 0.310238C0.937204 0.290868 0.870971 0.284103 0.805323 0.29033C0.739674 0.296556 0.675894 0.315653 0.617625 0.346528C0.499946 0.408884 0.411858 0.515434 0.372738 0.642738C0.333619 0.770042 0.346673 0.907672 0.409029 1.02535C0.471385 1.14303 0.577934 1.23112 0.705238 1.27024L2.50024 1.82024L4.79524 9.07024L3.97524 9.74024L3.91024 9.80524C3.70741 10.039 3.59244 10.3361 3.58514 10.6455C3.57784 10.9549 3.67866 11.2572 3.87024 11.5002C4.00652 11.666 4.17969 11.7975 4.37591 11.8843C4.57212 11.9711 4.78593 12.0108 5.00024 12.0002H13.3452C13.4778 12.0002 13.605 11.9476 13.6988 11.8538C13.7926 11.76 13.8452 11.6328 13.8452 11.5002C13.8452 11.3676 13.7926 11.2405 13.6988 11.1467C13.605 11.0529 13.4778 11.0002 13.3452 11.0002H4.92024C4.86266 10.9983 4.80657 10.9815 4.75737 10.9515C4.70817 10.9215 4.66753 10.8794 4.63939 10.8291C4.61124 10.7788 4.59653 10.7222 4.59668 10.6646C4.59683 10.607 4.61183 10.5504 4.64024 10.5002L5.84524 9.50024H13.5652C13.6808 9.50306 13.7938 9.46574 13.885 9.39464C13.9761 9.32353 14.0398 9.22303 14.0652 9.11024L15.6502 2.11024C15.6654 2.0357 15.6634 1.95867 15.6444 1.88502C15.6253 1.81137 15.5897 1.74304 15.5402 1.68524Z" fill="white"/>
</svg>
