<svg width="41" height="44" viewBox="0 0 41 44" fill="none" xmlns="http://www.w3.org/2000/svg">
<path d="M40.4687 40.2413H38.5648V8.09661C38.5648 7.65385 38.2106 7.29964 37.7678 7.29964H30.2408V1.7208C30.2408 1.27804 29.8866 0.923828 29.4438 0.923828H11.5562C11.1134 0.923828 10.7592 1.27804 10.7592 1.7208V7.34391H3.23218C2.78942 7.34391 2.4352 7.69813 2.4352 8.14089V40.2856H0.531317C0.265659 40.2856 0 40.507 0 40.8169V42.5437C0 42.8094 0.221382 43.075 0.531317 43.075H40.4687C40.7343 43.075 41 42.8536 41 42.5437V40.8169C41 40.4627 40.7786 40.2413 40.4687 40.2413ZM21.0313 40.2413V32.0502H25.4147C25.6803 32.0502 25.946 32.2716 25.946 32.5815V40.2413H21.0313ZM22.4039 28.6409V25.5858C22.4039 25.3202 22.6253 25.0545 22.9352 25.0545H26.1674C26.433 25.0545 26.6987 25.2759 26.6987 25.5858V28.6409C26.6987 28.9065 26.4773 29.1722 26.1674 29.1722H22.9352C22.6253 29.1722 22.4039 28.9508 22.4039 28.6409ZM30.4622 11.6387C30.4622 11.3731 30.6836 11.1074 30.9935 11.1074H34.2257C34.4914 11.1074 34.757 11.3288 34.757 11.6387V14.6938C34.757 14.9595 34.5356 15.2251 34.2257 15.2251H30.9935C30.7279 15.2251 30.4622 15.0037 30.4622 14.6938V11.6387ZM30.4622 18.6344C30.4622 18.3688 30.6836 18.1031 30.9935 18.1031H34.2257C34.4914 18.1031 34.757 18.3245 34.757 18.6344V21.6895C34.757 21.9551 34.5356 22.2208 34.2257 22.2208H30.9935C30.7279 22.2208 30.4622 21.9994 30.4622 21.6895V18.6344ZM30.4622 25.5858C30.4622 25.3202 30.6836 25.0545 30.9935 25.0545H34.2257C34.4914 25.0545 34.757 25.2759 34.757 25.5858V28.6409C34.757 28.9065 34.5356 29.1722 34.2257 29.1722H30.9935C30.7279 29.1722 30.4622 28.9508 30.4622 28.6409V25.5858ZM26.6544 18.6344V21.6895C26.6544 21.9551 26.433 22.2208 26.1231 22.2208H22.8909C22.6253 22.2208 22.3596 21.9994 22.3596 21.6895V18.6344C22.3596 18.3688 22.581 18.1031 22.8909 18.1031H26.1231C26.433 18.1031 26.6544 18.3245 26.6544 18.6344ZM20.5 4.28884C23.378 4.28884 25.7246 6.63549 25.7246 9.51346C25.7246 12.3914 23.378 14.7381 20.5 14.7381C17.622 14.7381 15.2754 12.3914 15.2754 9.51346C15.2754 6.63549 17.622 4.28884 20.5 4.28884ZM14.3456 18.6344C14.3456 18.3688 14.567 18.1031 14.8769 18.1031H18.1091C18.3747 18.1031 18.6404 18.3245 18.6404 18.6344V21.6895C18.6404 21.9551 18.419 22.2208 18.1091 22.2208H14.8769C14.6112 22.2208 14.3456 21.9994 14.3456 21.6895V18.6344ZM14.3456 25.5858C14.3456 25.3202 14.567 25.0545 14.8769 25.0545H18.1091C18.3747 25.0545 18.6404 25.2759 18.6404 25.5858V28.6409C18.6404 28.9065 18.419 29.1722 18.1091 29.1722H14.8769C14.6112 29.1722 14.3456 28.9508 14.3456 28.6409V25.5858ZM6.24298 11.6387C6.24298 11.3731 6.46436 11.1074 6.7743 11.1074H10.0065C10.2721 11.1074 10.5378 11.3288 10.5378 11.6387V14.6938C10.5378 14.9595 10.3164 15.2251 10.0065 15.2251H6.7743C6.50864 15.2251 6.24298 15.0037 6.24298 14.6938V11.6387ZM6.24298 18.6344C6.24298 18.3688 6.46436 18.1031 6.7743 18.1031H10.0065C10.2721 18.1031 10.5378 18.3245 10.5378 18.6344V21.6895C10.5378 21.9551 10.3164 22.2208 10.0065 22.2208H6.7743C6.50864 22.2208 6.24298 21.9994 6.24298 21.6895V18.6344ZM6.24298 25.5858C6.24298 25.3202 6.46436 25.0545 6.7743 25.0545H10.0065C10.2721 25.0545 10.5378 25.2759 10.5378 25.5858V28.6409C10.5378 28.9065 10.3164 29.1722 10.0065 29.1722H6.7743C6.50864 29.1722 6.24298 28.9508 6.24298 28.6409V25.5858ZM15.054 32.5815C15.054 32.3158 15.2754 32.0502 15.5853 32.0502H19.9687V40.2413H15.054V32.5815Z" fill="black"/>
<path d="M19.7024 12.5672H21.2964C21.4292 12.5672 21.562 12.4344 21.562 12.3015V10.5747H23.2888C23.4217 10.5747 23.5545 10.4419 23.5545 10.3091V8.71513C23.5545 8.5823 23.4217 8.44947 23.2888 8.44947H21.562V6.72269C21.562 6.58986 21.4292 6.45703 21.2964 6.45703H19.7024C19.5696 6.45703 19.4368 6.58986 19.4368 6.72269V8.44947H17.71C17.5772 8.44947 17.4443 8.5823 17.4443 8.71513V10.3091C17.4443 10.4419 17.5772 10.5747 17.71 10.5747H19.4368V12.3015C19.4368 12.4344 19.5696 12.5672 19.7024 12.5672Z" fill="black"/>
</svg>
