<svg width="59" height="59" viewBox="0 0 59 59" fill="none" xmlns="http://www.w3.org/2000/svg">
<rect width="59" height="59" rx="29.5" fill="#077E8C" fill-opacity="0.4"/>
<path d="M20.5 26C20.5 24.1144 20.5 23.1716 21.0858 22.5858C21.6716 22 22.6144 22 24.5 22H34.5C36.3856 22 37.3284 22 37.9142 22.5858C38.5 23.1716 38.5 24.1144 38.5 26H20.5Z" fill="#7E869E" fill-opacity="0.25"/>
<rect x="20.5" y="22" width="18" height="15" rx="2" stroke="white" stroke-width="1.2"/>
<path d="M24.5 19L24.5 22" stroke="white" stroke-width="1.2" stroke-linecap="round"/>
<path d="M34.5 19L34.5 22" stroke="white" stroke-width="1.2" stroke-linecap="round"/>
<rect x="24.5" y="28" width="4" height="2" rx="0.5" fill="white"/>
<rect x="24.5" y="32" width="4" height="2" rx="0.5" fill="white"/>
<rect x="30.5" y="28" width="4" height="2" rx="0.5" fill="white"/>
<rect x="30.5" y="32" width="4" height="2" rx="0.5" fill="white"/>
</svg>
