<svg width="48" height="48" viewBox="0 0 48 48" fill="none" xmlns="http://www.w3.org/2000/svg">
<path d="M34.0199 25.4601C35.2018 25.4601 36.1599 24.502 36.1599 23.3201C36.1599 22.1382 35.2018 21.1802 34.0199 21.1802C32.838 21.1802 31.8799 22.1382 31.8799 23.3201C31.8799 24.502 32.838 25.4601 34.0199 25.4601Z" stroke="white" stroke-width="1.5" stroke-linecap="round" stroke-linejoin="round"/>
<path d="M40 12V15.58C39.5 15.52 38.92 15.48 38.3 15.48H29.74C25.46 15.48 24.04 16.9001 24.04 21.1801V31.4H12C5.6 31.4 4 29.8 4 23.4V12C4 5.6 5.6 4 12 4H32C38.4 4 40 5.6 40 12Z" stroke="white" stroke-width="1.5" stroke-linecap="round" stroke-linejoin="round"/>
<path d="M18 31.3999V39.9999" stroke="white" stroke-width="1.5" stroke-linecap="round" stroke-linejoin="round"/>
<path d="M4 23.7998H24" stroke="white" stroke-width="1.5" stroke-linecap="round" stroke-linejoin="round"/>
<path d="M11.9004 40H24.0004" stroke="white" stroke-width="1.5" stroke-linecap="round" stroke-linejoin="round"/>
<path d="M34.0199 25.4601C35.2018 25.4601 36.1599 24.502 36.1599 23.3201C36.1599 22.1382 35.2018 21.1802 34.0199 21.1802C32.838 21.1802 31.8799 22.1382 31.8799 23.3201C31.8799 24.502 32.838 25.4601 34.0199 25.4601Z" stroke="white" stroke-width="1.5" stroke-miterlimit="10" stroke-linecap="round" stroke-linejoin="round"/>
<path d="M40.0001 15.58C39.5001 15.52 38.92 15.48 38.3 15.48H29.7401C25.4601 15.48 24.04 16.9001 24.04 21.1801V38.3C24.04 42.58 25.4601 44 29.7401 44H38.3C42.58 44 44.0001 42.58 44.0001 38.3V21.1801C44.0001 17.5201 42.9601 15.96 40.0001 15.58ZM34.0201 21.1801C35.2001 21.1801 36.16 22.1399 36.16 23.3199C36.16 24.4999 35.2001 25.46 34.0201 25.46C32.8401 25.46 31.8801 24.4999 31.8801 23.3199C31.8801 22.1399 32.8401 21.1801 34.0201 21.1801ZM34.0201 38.3C31.6601 38.3 29.7401 36.38 29.7401 34.02C29.7401 33.04 30.0801 32.12 30.6401 31.4C31.4201 30.4 32.6401 29.74 34.0201 29.74C35.1001 29.74 36.0801 30.14 36.8201 30.78C37.7201 31.58 38.3 32.74 38.3 34.02C38.3 36.38 36.3801 38.3 34.0201 38.3Z" stroke="white" stroke-width="1.5" stroke-miterlimit="10" stroke-linecap="round" stroke-linejoin="round"/>
<path d="M38.3002 34.0203C38.3002 36.3803 36.3803 38.3003 34.0203 38.3003C31.6603 38.3003 29.7402 36.3803 29.7402 34.0203C29.7402 33.0403 30.0803 32.1203 30.6403 31.4003C31.4203 30.4003 32.6403 29.7402 34.0203 29.7402C35.1003 29.7402 36.0803 30.1403 36.8203 30.7803C37.7203 31.5803 38.3002 32.7403 38.3002 34.0203Z" stroke="white" stroke-width="1.5" stroke-miterlimit="10" stroke-linecap="round" stroke-linejoin="round"/>
<path d="M34.0199 25.4601C35.2018 25.4601 36.1599 24.502 36.1599 23.3201C36.1599 22.1382 35.2018 21.1802 34.0199 21.1802C32.838 21.1802 31.8799 22.1382 31.8799 23.3201C31.8799 24.502 32.838 25.4601 34.0199 25.4601Z" stroke="white" stroke-width="1.5" stroke-miterlimit="10" stroke-linecap="round" stroke-linejoin="round"/>
</svg>
