<svg width="56" height="55" viewBox="0 0 56 55" fill="none" xmlns="http://www.w3.org/2000/svg">
<rect width="56" height="55" rx="27.5" fill="#F7F7F7"/>
<path d="M28.1601 26.37C28.0601 26.36 27.9401 26.36 27.8301 26.37C25.4501 26.29 23.5601 24.34 23.5601 21.94C23.5601 19.49 25.5401 17.5 28.0001 17.5C30.4501 17.5 32.4401 19.49 32.4401 21.94C32.4301 24.34 30.5401 26.29 28.1601 26.37Z" stroke="#8E8E8E" stroke-width="1.5" stroke-linecap="round" stroke-linejoin="round"/>
<path d="M23.16 30.06C20.74 31.68 20.74 34.32 23.16 35.93C25.91 37.77 30.42 37.77 33.17 35.93C35.59 34.31 35.59 31.67 33.17 30.06C30.43 28.23 25.92 28.23 23.16 30.06Z" stroke="#8E8E8E" stroke-width="1.5" stroke-linecap="round" stroke-linejoin="round"/>
</svg>
