<svg width="51" height="50" viewBox="0 0 51 50" fill="none" xmlns="http://www.w3.org/2000/svg">
<path d="M49.2905 40.1888V23.8936V23.8915C49.2905 22.3235 49.2905 21.5391 49.0957 20.8091C48.923 20.1619 48.6385 19.5482 48.2548 18.9948C47.8218 18.3702 47.2192 17.8536 46.0128 16.8202L31.6128 4.48414C29.373 2.56535 28.253 1.60608 26.9927 1.24116C25.8821 0.919614 24.699 0.919614 23.5884 1.24116C22.3287 1.60588 21.2099 2.56431 18.9725 4.481L18.9689 4.48414L4.56885 16.8202L4.56598 16.8226C3.36149 17.8545 2.75884 18.3707 2.32617 18.9948C1.94244 19.5482 1.65817 20.1619 1.48544 20.8091C1.29053 21.5394 1.29053 22.3242 1.29053 23.8936V40.1888C1.29053 42.9258 1.29053 44.2941 1.74725 45.3736C2.35621 46.813 3.52495 47.9566 4.99512 48.5528C6.09774 49 7.49557 49 10.2912 49C13.0869 49 14.484 49 15.5866 48.5528C17.0568 47.9566 18.2245 46.813 18.8335 45.3736C19.2902 44.2941 19.2905 42.9256 19.2905 40.1885V37.2513C19.2905 34.0071 21.9768 31.377 25.2905 31.377C28.6042 31.377 31.2905 34.0071 31.2905 37.2513V40.1885C31.2905 42.9256 31.2905 44.2941 31.7472 45.3736C32.3562 46.813 33.5249 47.9566 34.9951 48.5528C36.0977 49 37.4956 49 40.2912 49C43.0869 49 44.484 49 45.5866 48.5528C47.0568 47.9566 48.2245 46.813 48.8335 45.3736C49.2902 44.2941 49.2905 42.9258 49.2905 40.1888Z" stroke="white" stroke-width="2" stroke-linecap="round" stroke-linejoin="round"/>
</svg>
