<svg width="26" height="42" viewBox="0 0 26 42" fill="none" xmlns="http://www.w3.org/2000/svg">
<path d="M0 4.76V32.0133V37.24C0 39.8533 2.14667 42 4.76 42H20.8133C23.4267 42 25.5733 39.8533 25.5733 37.24V32.5733V4.76C25.5733 2.14667 23.4267 0 20.8133 0H4.76C2.14667 0 0 2.14667 0 4.76ZM12.7867 39.4333C11.5267 39.4333 10.5 38.4067 10.5 37.1467C10.5 35.8867 11.5267 34.86 12.7867 34.86C14.0467 34.86 15.0733 35.8867 15.0733 37.1467C15.0733 38.4067 14.0467 39.4333 12.7867 39.4333ZM22.4933 6.58C23.0067 6.58 23.4267 7 23.4267 7.51333V31.2667C23.4267 31.78 23.0067 32.2 22.4933 32.2H3.08C2.56667 32.2 2.14667 31.78 2.14667 31.2667V7.51333C2.14667 7 2.56667 6.58 3.08 6.58H22.4933ZM9.24 3.36C9.24 3.26667 9.33333 3.22 9.38 3.22H16.1467C16.24 3.22 16.2867 3.31333 16.2867 3.36V4.01333C16.2867 4.10667 16.24 4.15333 16.1467 4.15333H9.42667C9.33333 4.15333 9.28667 4.10667 9.28667 4.01333V3.36H9.24Z" fill="#111111"/>
<path d="M15.3047 22.8203C15.3047 23.1937 15.5847 23.4737 15.958 23.4737C16.3314 23.4737 16.6114 23.1937 16.6114 22.8203C16.6114 22.5403 16.4247 22.307 16.1914 22.2137C16.098 22.167 16.0514 22.167 15.958 22.167C15.8647 22.167 15.818 22.167 15.7714 22.2137C15.4914 22.307 15.3047 22.5403 15.3047 22.8203ZM15.958 22.447C16.1914 22.447 16.3314 22.6337 16.3314 22.8203C16.3314 23.007 16.1447 23.1937 15.958 23.1937C15.7247 23.1937 15.5847 23.007 15.5847 22.8203C15.5847 22.6337 15.7247 22.447 15.958 22.447Z" fill="#111111"/>
<path d="M7.00011 26.3662H18.5734C19.1801 26.3662 19.6934 25.8529 19.6934 25.2462V22.2595C19.6934 21.2795 19.0868 20.4395 18.2001 20.1129L15.8668 19.2262C16.1001 19.9729 16.1934 20.8595 16.1934 21.8395C16.6601 21.9329 16.9868 22.3529 16.9868 22.8662C16.9868 23.4262 16.5201 23.8929 15.9601 23.8929C15.4001 23.8929 14.9334 23.4262 14.9334 22.8662C14.9334 22.3529 15.3068 21.9329 15.7734 21.8395C15.7268 20.7662 15.5868 19.8329 15.3534 19.0395L14.6534 18.7595C14.5601 18.7129 14.4201 18.7595 14.4201 18.8529L12.7868 23.4729C12.7868 23.5195 12.6934 23.5195 12.6468 23.4729L11.2001 18.8995C11.1534 18.8062 11.0601 18.7595 10.9668 18.7595L9.94011 19.1329C9.70678 19.6929 9.61345 20.2062 9.61345 20.6729C9.66011 20.6729 9.70678 20.7195 9.70678 20.7195L9.80011 21.2795C9.80011 21.3262 9.84678 21.3729 9.94011 21.3729C10.7801 21.4662 11.4334 22.0729 11.5734 22.9129L11.6201 23.3329C11.6201 23.3795 11.5734 23.4262 11.5268 23.4262H11.4334L11.5734 24.6862C11.6201 24.9662 11.4334 25.1995 11.1534 25.2462C11.1534 25.2929 11.1068 25.3862 11.0601 25.3862H10.8734C10.7334 25.3862 10.5934 25.2929 10.5934 25.1529C10.5934 25.0129 10.6868 24.8729 10.8268 24.8729H11.0134C11.0601 24.8729 11.1534 24.9195 11.1534 24.9662C11.2934 24.9662 11.4334 24.7795 11.3868 24.6395L11.2468 23.3795H11.1534C11.1068 23.3795 11.0601 23.3329 11.0601 23.2862L11.0134 22.8662C10.9201 22.1662 10.3134 21.6995 9.61345 21.7929C8.96011 21.8862 8.49345 22.5395 8.58678 23.1929L8.63345 23.5662C8.63345 23.6129 8.58678 23.6595 8.54011 23.6595H8.44678L8.58678 24.9195C8.58678 25.0595 8.72678 25.1995 8.91345 25.1529C8.91345 25.1062 8.96011 25.0129 9.00678 25.0129H9.19345C9.33345 25.0129 9.47345 25.1062 9.47345 25.2462C9.47345 25.3862 9.38011 25.5262 9.24011 25.5262H9.05345C9.00678 25.5262 8.91345 25.4795 8.91345 25.4329C8.63345 25.4795 8.40011 25.2929 8.35345 25.0129L8.21345 23.7529H8.12011C8.07345 23.7529 8.02678 23.7062 8.02678 23.6595L7.98011 23.2862C7.88678 22.4462 8.35345 21.6062 9.14678 21.3262C9.19345 21.3262 9.24011 21.2329 9.24011 21.1862L9.14678 20.6262C9.14678 20.5795 9.14678 20.5795 9.19345 20.5329C9.19345 20.1129 9.24011 19.6462 9.42678 19.1329L7.42011 19.8795C6.53345 20.2062 5.92678 21.0929 5.92678 22.0262V25.0129C5.88011 25.8529 6.39345 26.3662 7.00011 26.3662Z" fill="#111111"/>
<path d="M10.1259 15.5866C10.3592 16.9866 11.4792 17.9199 12.6926 18.1532C12.7392 18.1532 12.7392 18.1532 12.7859 18.1532C12.8792 18.1532 13.0192 18.1532 13.1126 18.1066C14.5592 17.6866 15.2592 16.5666 15.4459 15.5866C15.8192 15.6332 16.0992 15.3532 16.2859 14.7932C16.4259 14.0466 16.4726 13.4866 15.8192 13.5332C16.1459 10.9199 14.5592 12.3199 14.8392 11.1532C15.1192 10.0332 9.1459 9.37989 9.79923 13.5332C9.23923 13.4399 9.0059 13.7199 9.23923 14.6066C9.37923 15.3532 9.65923 15.6799 10.1259 15.5866Z" fill="#111111"/>
</svg>
