<svg width="18" height="18" viewBox="0 0 18 18" fill="none" xmlns="http://www.w3.org/2000/svg">
<path fill-rule="evenodd" clip-rule="evenodd" d="M8.20769 0.9375H9.79231C11.1706 0.937488 12.2624 0.937479 13.1168 1.05235C13.9961 1.17057 14.7078 1.41966 15.2691 1.98093C15.8303 2.54221 16.0794 3.25392 16.1976 4.13323C16.3125 4.98764 16.3125 6.07937 16.3125 7.45769V10.5423C16.3125 11.9206 16.3125 13.0124 16.1976 13.8668C16.0794 14.7461 15.8303 15.4578 15.2691 16.0191C14.7078 16.5803 13.9961 16.8294 13.1168 16.9476C12.2624 17.0625 11.1706 17.0625 9.79231 17.0625H8.20769C6.82937 17.0625 5.73764 17.0625 4.88323 16.9476C4.00392 16.8294 3.29221 16.5803 2.73093 16.0191C2.16966 15.4578 1.92057 14.7461 1.80235 13.8668C1.68748 13.0124 1.68749 11.9206 1.6875 10.5423V7.45769C1.68749 6.07937 1.68748 4.98764 1.80235 4.13323C1.92057 3.25392 2.16966 2.54221 2.73093 1.98093C3.29221 1.41966 4.00392 1.17057 4.88323 1.05235C5.73764 0.937479 6.82937 0.937488 8.20769 0.9375ZM5.03314 2.16732C4.27857 2.26877 3.84384 2.45902 3.52643 2.77643C3.20902 3.09384 3.01877 3.52857 2.91732 4.28314C2.8137 5.05388 2.8125 6.06988 2.8125 7.5V10.5C2.8125 11.9301 2.8137 12.9461 2.91732 13.7169C3.01877 14.4714 3.20902 14.9062 3.52643 15.2236C3.84384 15.541 4.27857 15.7312 5.03314 15.8327C5.80388 15.9363 6.81988 15.9375 8.25 15.9375H9.75C11.1801 15.9375 12.1961 15.9363 12.9669 15.8327C13.7214 15.7312 14.1562 15.541 14.4736 15.2236C14.791 14.9062 14.9812 14.4714 15.0827 13.7169C15.1863 12.9461 15.1875 11.9301 15.1875 10.5V7.5C15.1875 6.06989 15.1863 5.05389 15.0827 4.28314C14.9812 3.52857 14.791 3.09384 14.4736 2.77643C14.1562 2.45902 13.7214 2.26877 12.9669 2.16732C12.1961 2.0637 11.1801 2.0625 9.75 2.0625H8.25C6.81989 2.0625 5.80389 2.0637 5.03314 2.16732ZM5.4375 6C5.4375 5.68934 5.68934 5.4375 6 5.4375H12C12.3107 5.4375 12.5625 5.68934 12.5625 6C12.5625 6.31066 12.3107 6.5625 12 6.5625H6C5.68934 6.5625 5.4375 6.31066 5.4375 6ZM5.4375 9C5.4375 8.68934 5.68934 8.4375 6 8.4375H12C12.3107 8.4375 12.5625 8.68934 12.5625 9C12.5625 9.31066 12.3107 9.5625 12 9.5625H6C5.68934 9.5625 5.4375 9.31066 5.4375 9ZM5.4375 12C5.4375 11.6893 5.68934 11.4375 6 11.4375H9.75C10.0607 11.4375 10.3125 11.6893 10.3125 12C10.3125 12.3107 10.0607 12.5625 9.75 12.5625H6C5.68934 12.5625 5.4375 12.3107 5.4375 12Z" fill="#00A99D"/>
</svg>
