<svg width="80" height="80" viewBox="0 0 80 80" fill="none" xmlns="http://www.w3.org/2000/svg">
<rect width="80" height="80" rx="40" fill="#00A99D"/>
<path d="M30 40C30 36.2288 30 34.3431 31.1716 33.1716C32.3431 32 34.2288 32 38 32H42C45.7712 32 47.6569 32 48.8284 33.1716C50 34.3431 50 36.2288 50 40V42C50 45.7712 50 47.6569 48.8284 48.8284C47.6569 50 45.7712 50 42 50H38C34.2288 50 32.3431 50 31.1716 48.8284C30 47.6569 30 45.7712 30 42V40Z" stroke="white" stroke-width="1.5"/>
<path d="M35 32V30.5" stroke="white" stroke-width="1.5" stroke-linecap="round"/>
<path d="M45 32V30.5" stroke="white" stroke-width="1.5" stroke-linecap="round"/>
<path d="M30.5 37H49.5" stroke="white" stroke-width="1.5" stroke-linecap="round"/>
<path d="M46 45C46 45.5523 45.5523 46 45 46C44.4477 46 44 45.5523 44 45C44 44.4477 44.4477 44 45 44C45.5523 44 46 44.4477 46 45Z" fill="white"/>
<path d="M46 41C46 41.5523 45.5523 42 45 42C44.4477 42 44 41.5523 44 41C44 40.4477 44.4477 40 45 40C45.5523 40 46 40.4477 46 41Z" fill="white"/>
<path d="M41 45C41 45.5523 40.5523 46 40 46C39.4477 46 39 45.5523 39 45C39 44.4477 39.4477 44 40 44C40.5523 44 41 44.4477 41 45Z" fill="white"/>
<path d="M41 41C41 41.5523 40.5523 42 40 42C39.4477 42 39 41.5523 39 41C39 40.4477 39.4477 40 40 40C40.5523 40 41 40.4477 41 41Z" fill="white"/>
<path d="M36 45C36 45.5523 35.5523 46 35 46C34.4477 46 34 45.5523 34 45C34 44.4477 34.4477 44 35 44C35.5523 44 36 44.4477 36 45Z" fill="white"/>
<path d="M36 41C36 41.5523 35.5523 42 35 42C34.4477 42 34 41.5523 34 41C34 40.4477 34.4477 40 35 40C35.5523 40 36 40.4477 36 41Z" fill="white"/>
</svg>
