<svg width="14" height="15" viewBox="0 0 14 15" fill="none" xmlns="http://www.w3.org/2000/svg">
<path d="M5.54183 2.24977H6.12516C6.7695 2.24977 7.29183 2.7721 7.29183 3.41643V5.74985C7.29183 7.36068 5.98599 8.66651 4.37516 8.66651M3.2085 2.24977H2.62516C1.98083 2.24977 1.4585 2.7721 1.4585 3.41643V5.74985C1.4585 7.36068 2.76433 8.66651 4.37516 8.66651M4.37516 8.66651V10.1248C4.37516 11.8968 5.81158 13.3332 7.5835 13.3332C9.35541 13.3332 10.7918 11.8968 10.7918 10.1248V9.54151M10.7918 9.54151C11.5972 9.54151 12.2502 8.8886 12.2502 8.08318C12.2502 7.27777 11.5972 6.62485 10.7918 6.62485C9.98641 6.62485 9.3335 7.27777 9.3335 8.08318C9.3335 8.8886 9.98641 9.54151 10.7918 9.54151ZM5.54183 1.6665L5.54181 2.83306M3.2085 1.66651V2.83318" stroke="#8E8E8E" stroke-linecap="round" stroke-linejoin="round"/>
</svg>
