<svg width="24" height="24" viewBox="0 0 24 24" fill="none" xmlns="http://www.w3.org/2000/svg">
<path d="M12.4401 9.12695L11.0321 14.762L15.9621 21.101M10.3281 18.284L8.21509 21.1" stroke="#494949" stroke-width="1.5" stroke-linecap="round" stroke-linejoin="round"/>
<path d="M8.21509 13.353C8.21509 9.409 11.0321 9.127 12.4411 9.127V9.127C13.2598 9.127 13.9546 9.71406 14.2916 10.4602C14.8189 11.628 15.7974 12.9599 17.3711 13.353M13.0001 7C13.5305 7 14.0392 6.78929 14.4143 6.41421C14.7894 6.03914 15.0001 5.53043 15.0001 5C15.0001 4.46957 14.7894 3.96086 14.4143 3.58579C14.0392 3.21071 13.5305 3 13.0001 3C12.4697 3 11.9609 3.21071 11.5859 3.58579C11.2108 3.96086 11.0001 4.46957 11.0001 5C11.0001 5.53043 11.2108 6.03914 11.5859 6.41421C11.9609 6.78929 12.4697 7 13.0001 7Z" stroke="#494949" stroke-width="1.5" stroke-linecap="round" stroke-linejoin="round"/>
</svg>
